<svg class="fig" viewBox="-6 -52 765 307" xmlns="http://www.w3.org/2000/svg" role="img"><g transform="translate(22.52,39.00)"><polygon points="45.03,-52.00 45.03,-26.00 22.52,-13.00 0.00,-26.00 0.00,-13.00 22.52,0.00 45.03,-13.00 45.03,-39.00" fill="#1E4229"/><polygon points="22.52,-65.00 45.03,-52.00 45.03,-26.00 22.52,-13.00 0.00,-26.00 0.00,-52.00" fill="#37704A" stroke="#1E4229" stroke-width="1.2"/><polygon points="135.10,-52.00 135.10,-26.00 112.58,-13.00 90.07,-26.00 90.07,-13.00 112.58,0.00 135.10,-13.00 135.10,-39.00" fill="#1E4229"/><polygon points="112.58,-65.00 135.10,-52.00 135.10,-26.00 112.58,-13.00 90.07,-26.00 90.07,-52.00" fill="#37704A" stroke="#1E4229" stroke-width="1.2"/><polygon points="22.52,-13.00 22.52,13.00 0.00,26.00 -22.52,13.00 -22.52,18.00 0.00,31.00 22.52,18.00 22.52,-8.00" fill="#9B7A16"/><polygon points="0.00,-26.00 22.52,-13.00 22.52,13.00 0.00,26.00 -22.52,13.00 -22.52,-13.00" fill="#D2A93A" stroke="#9B7A16" stroke-width="1.2"/><ellipse cx="0.00" cy="6.00" rx="11" ry="5.5" fill="#7B2018"/><ellipse cx="0.00" cy="3.00" rx="11" ry="5.5" fill="#C0392B" stroke="#7B2018" stroke-width="1.2"/><polygon points="67.55,-13.00 67.55,13.00 45.03,26.00 22.52,13.00 22.52,34.00 45.03,47.00 67.55,34.00 67.55,8.00" fill="#5A544C"/><polygon points="45.03,-26.00 67.55,-13.00 67.55,13.00 45.03,26.00 22.52,13.00 22.52,-13.00" fill="#8A837A" stroke="#5A544C" stroke-width="1.2"/><polygon points="112.58,-13.00 112.58,13.00 90.07,26.00 67.55,13.00 67.55,34.00 90.07,47.00 112.58,34.00 112.58,8.00" fill="#5A544C"/><polygon points="90.07,-26.00 112.58,-13.00 112.58,13.00 90.07,26.00 67.55,13.00 67.55,-13.00" fill="#8A837A" stroke="#5A544C" stroke-width="1.2"/><polygon points="157.62,-13.00 157.62,13.00 135.10,26.00 112.58,13.00 112.58,18.00 135.10,31.00 157.62,18.00 157.62,-8.00" fill="#9B7A16"/><polygon points="135.10,-26.00 157.62,-13.00 157.62,13.00 135.10,26.00 112.58,13.00 112.58,-13.00" fill="#D2A93A" stroke="#9B7A16" stroke-width="1.2"/><ellipse cx="135.10" cy="6.00" rx="11" ry="5.5" fill="#5A544C"/><ellipse cx="135.10" cy="3.00" rx="11" ry="5.5" fill="#EDEAE1" stroke="#5A544C" stroke-width="1.2"/><polygon points="202.65,-13.00 202.65,13.00 180.13,26.00 157.62,13.00 157.62,18.00 180.13,31.00 202.65,18.00 202.65,-8.00" fill="#123D53"/><polygon points="180.13,-26.00 202.65,-13.00 202.65,13.00 180.13,26.00 157.62,13.00 157.62,-13.00" fill="#256A8C" stroke="#123D53" stroke-width="1.2"/><polygon points="45.03,26.00 45.03,52.00 22.52,65.00 0.00,52.00 0.00,57.00 22.52,70.00 45.03,57.00 45.03,31.00" fill="#123D53"/><polygon points="22.52,13.00 45.03,26.00 45.03,52.00 22.52,65.00 0.00,52.00 0.00,26.00" fill="#256A8C" stroke="#123D53" stroke-width="1.2"/></g><text x="112.58" y="237.00" text-anchor="middle" class="fig-strong" font-size="11">2 players</text><g transform="translate(241.17,-39.00)"><polygon points="135.10,26.00 135.10,52.00 112.58,65.00 90.07,52.00 90.07,57.00 112.58,70.00 135.10,57.00 135.10,31.00" fill="#9B7A16"/><polygon points="112.58,13.00 135.10,26.00 135.10,52.00 112.58,65.00 90.07,52.00 90.07,26.00" fill="#D2A93A" stroke="#9B7A16" stroke-width="1.2"/><ellipse cx="112.58" cy="45.00" rx="11" ry="5.5" fill="#5A544C"/><ellipse cx="112.58" cy="42.00" rx="11" ry="5.5" fill="#EDEAE1" stroke="#5A544C" stroke-width="1.2"/><polygon points="180.13,26.00 180.13,52.00 157.62,65.00 135.10,52.00 135.10,57.00 157.62,70.00 180.13,57.00 180.13,31.00" fill="#123D53"/><polygon points="157.62,13.00 180.13,26.00 180.13,52.00 157.62,65.00 135.10,52.00 135.10,26.00" fill="#256A8C" stroke="#123D53" stroke-width="1.2"/><polygon points="67.55,65.00 67.55,91.00 45.03,104.00 22.52,91.00 22.52,104.00 45.03,117.00 67.55,104.00 67.55,78.00" fill="#1E4229"/><polygon points="45.03,52.00 67.55,65.00 67.55,91.00 45.03,104.00 22.52,91.00 22.52,65.00" fill="#37704A" stroke="#1E4229" stroke-width="1.2"/><polygon points="112.58,65.00 112.58,91.00 90.07,104.00 67.55,91.00 67.55,112.00 90.07,125.00 112.58,112.00 112.58,86.00" fill="#5A544C"/><polygon points="90.07,52.00 112.58,65.00 112.58,91.00 90.07,104.00 67.55,91.00 67.55,65.00" fill="#8A837A" stroke="#5A544C" stroke-width="1.2"/><polygon points="157.62,65.00 157.62,91.00 135.10,104.00 112.58,91.00 112.58,104.00 135.10,117.00 157.62,104.00 157.62,78.00" fill="#1E4229"/><polygon points="135.10,52.00 157.62,65.00 157.62,91.00 135.10,104.00 112.58,91.00 112.58,65.00" fill="#37704A" stroke="#1E4229" stroke-width="1.2"/><polygon points="45.03,104.00 45.03,130.00 22.52,143.00 0.00,130.00 0.00,135.00 22.52,148.00 45.03,135.00 45.03,109.00" fill="#9B7A16"/><polygon points="22.52,91.00 45.03,104.00 45.03,130.00 22.52,143.00 0.00,130.00 0.00,104.00" fill="#D2A93A" stroke="#9B7A16" stroke-width="1.2"/><ellipse cx="22.52" cy="123.00" rx="11" ry="5.5" fill="#7B2018"/><ellipse cx="22.52" cy="120.00" rx="11" ry="5.5" fill="#C0392B" stroke="#7B2018" stroke-width="1.2"/><polygon points="90.07,104.00 90.07,130.00 67.55,143.00 45.03,130.00 45.03,151.00 67.55,164.00 90.07,151.00 90.07,125.00" fill="#5A544C"/><polygon points="67.55,91.00 90.07,104.00 90.07,130.00 67.55,143.00 45.03,130.00 45.03,104.00" fill="#8A837A" stroke="#5A544C" stroke-width="1.2"/><polygon points="135.10,104.00 135.10,130.00 112.58,143.00 90.07,130.00 90.07,151.00 112.58,164.00 135.10,151.00 135.10,125.00" fill="#5A544C"/><polygon points="112.58,91.00 135.10,104.00 135.10,130.00 112.58,143.00 90.07,130.00 90.07,104.00" fill="#8A837A" stroke="#5A544C" stroke-width="1.2"/><polygon points="180.13,104.00 180.13,130.00 157.62,143.00 135.10,130.00 135.10,143.00 157.62,156.00 180.13,143.00 180.13,117.00" fill="#1E4229"/><polygon points="157.62,91.00 180.13,104.00 180.13,130.00 157.62,143.00 135.10,130.00 135.10,104.00" fill="#37704A" stroke="#1E4229" stroke-width="1.2"/><polygon points="67.55,143.00 67.55,169.00 45.03,182.00 22.52,169.00 22.52,174.00 45.03,187.00 67.55,174.00 67.55,148.00" fill="#123D53"/><polygon points="45.03,130.00 67.55,143.00 67.55,169.00 45.03,182.00 22.52,169.00 22.52,143.00" fill="#256A8C" stroke="#123D53" stroke-width="1.2"/><polygon points="157.62,143.00 157.62,169.00 135.10,182.00 112.58,169.00 112.58,174.00 135.10,187.00 157.62,174.00 157.62,148.00" fill="#9B7A16"/><polygon points="135.10,130.00 157.62,143.00 157.62,169.00 135.10,182.00 112.58,169.00 112.58,143.00" fill="#D2A93A" stroke="#9B7A16" stroke-width="1.2"/><ellipse cx="135.10" cy="162.00" rx="11" ry="5.5" fill="#232659"/><ellipse cx="135.10" cy="159.00" rx="11" ry="5.5" fill="#3B3F8F" stroke="#232659" stroke-width="1.2"/><polygon points="202.65,143.00 202.65,169.00 180.13,182.00 157.62,169.00 157.62,174.00 180.13,187.00 202.65,174.00 202.65,148.00" fill="#123D53"/><polygon points="180.13,130.00 202.65,143.00 202.65,169.00 180.13,182.00 157.62,169.00 157.62,143.00" fill="#256A8C" stroke="#123D53" stroke-width="1.2"/></g><text x="342.49" y="237.00" text-anchor="middle" class="fig-strong" font-size="11">3 players</text><g transform="translate(482.33,-39.00)"><polygon points="45.03,26.00 45.03,52.00 22.52,65.00 0.00,52.00 0.00,65.00 22.52,78.00 45.03,65.00 45.03,39.00" fill="#1E4229"/><polygon points="22.52,13.00 45.03,26.00 45.03,52.00 22.52,65.00 0.00,52.00 0.00,26.00" fill="#37704A" stroke="#1E4229" stroke-width="1.2"/><polygon points="135.10,26.00 135.10,52.00 112.58,65.00 90.07,52.00 90.07,57.00 112.58,70.00 135.10,57.00 135.10,31.00" fill="#9B7A16"/><polygon points="112.58,13.00 135.10,26.00 135.10,52.00 112.58,65.00 90.07,52.00 90.07,26.00" fill="#D2A93A" stroke="#9B7A16" stroke-width="1.2"/><ellipse cx="112.58" cy="45.00" rx="11" ry="5.5" fill="#5A544C"/><ellipse cx="112.58" cy="42.00" rx="11" ry="5.5" fill="#EDEAE1" stroke="#5A544C" stroke-width="1.2"/><polygon points="180.13,26.00 180.13,52.00 157.62,65.00 135.10,52.00 135.10,57.00 157.62,70.00 180.13,57.00 180.13,31.00" fill="#123D53"/><polygon points="157.62,13.00 180.13,26.00 180.13,52.00 157.62,65.00 135.10,52.00 135.10,26.00" fill="#256A8C" stroke="#123D53" stroke-width="1.2"/><polygon points="22.52,65.00 22.52,91.00 0.00,104.00 -22.52,91.00 -22.52,96.00 0.00,109.00 22.52,96.00 22.52,70.00" fill="#9B7A16"/><polygon points="0.00,52.00 22.52,65.00 22.52,91.00 0.00,104.00 -22.52,91.00 -22.52,65.00" fill="#D2A93A" stroke="#9B7A16" stroke-width="1.2"/><ellipse cx="0.00" cy="84.00" rx="11" ry="5.5" fill="#7B2018"/><ellipse cx="0.00" cy="81.00" rx="11" ry="5.5" fill="#C0392B" stroke="#7B2018" stroke-width="1.2"/><polygon points="67.55,65.00 67.55,91.00 45.03,104.00 22.52,91.00 22.52,112.00 45.03,125.00 67.55,112.00 67.55,86.00" fill="#5A544C"/><polygon points="45.03,52.00 67.55,65.00 67.55,91.00 45.03,104.00 22.52,91.00 22.52,65.00" fill="#8A837A" stroke="#5A544C" stroke-width="1.2"/><polygon points="112.58,65.00 112.58,91.00 90.07,104.00 67.55,91.00 67.55,112.00 90.07,125.00 112.58,112.00 112.58,86.00" fill="#5A544C"/><polygon points="90.07,52.00 112.58,65.00 112.58,91.00 90.07,104.00 67.55,91.00 67.55,65.00" fill="#8A837A" stroke="#5A544C" stroke-width="1.2"/><polygon points="157.62,65.00 157.62,91.00 135.10,104.00 112.58,91.00 112.58,104.00 135.10,117.00 157.62,104.00 157.62,78.00" fill="#1E4229"/><polygon points="135.10,52.00 157.62,65.00 157.62,91.00 135.10,104.00 112.58,91.00 112.58,65.00" fill="#37704A" stroke="#1E4229" stroke-width="1.2"/><polygon points="202.65,65.00 202.65,91.00 180.13,104.00 157.62,91.00 157.62,104.00 180.13,117.00 202.65,104.00 202.65,78.00" fill="#1E4229"/><polygon points="180.13,52.00 202.65,65.00 202.65,91.00 180.13,104.00 157.62,91.00 157.62,65.00" fill="#37704A" stroke="#1E4229" stroke-width="1.2"/><polygon points="45.03,104.00 45.03,130.00 22.52,143.00 0.00,130.00 0.00,135.00 22.52,148.00 45.03,135.00 45.03,109.00" fill="#123D53"/><polygon points="22.52,91.00 45.03,104.00 45.03,130.00 22.52,143.00 0.00,130.00 0.00,104.00" fill="#256A8C" stroke="#123D53" stroke-width="1.2"/><polygon points="135.10,104.00 135.10,130.00 112.58,143.00 90.07,130.00 90.07,151.00 112.58,164.00 135.10,151.00 135.10,125.00" fill="#5A544C"/><polygon points="112.58,91.00 135.10,104.00 135.10,130.00 112.58,143.00 90.07,130.00 90.07,104.00" fill="#8A837A" stroke="#5A544C" stroke-width="1.2"/><polygon points="180.13,104.00 180.13,130.00 157.62,143.00 135.10,130.00 135.10,151.00 157.62,164.00 180.13,151.00 180.13,125.00" fill="#5A544C"/><polygon points="157.62,91.00 180.13,104.00 180.13,130.00 157.62,143.00 135.10,130.00 135.10,104.00" fill="#8A837A" stroke="#5A544C" stroke-width="1.2"/><polygon points="225.17,104.00 225.17,130.00 202.65,143.00 180.13,130.00 180.13,135.00 202.65,148.00 225.17,135.00 225.17,109.00" fill="#9B7A16"/><polygon points="202.65,91.00 225.17,104.00 225.17,130.00 202.65,143.00 180.13,130.00 180.13,104.00" fill="#D2A93A" stroke="#9B7A16" stroke-width="1.2"/><ellipse cx="202.65" cy="123.00" rx="11" ry="5.5" fill="#4C2F63"/><ellipse cx="202.65" cy="120.00" rx="11" ry="5.5" fill="#7A4E9B" stroke="#4C2F63" stroke-width="1.2"/><polygon points="270.20,104.00 270.20,130.00 247.68,143.00 225.17,130.00 225.17,135.00 247.68,148.00 270.20,135.00 270.20,109.00" fill="#123D53"/><polygon points="247.68,91.00 270.20,104.00 270.20,130.00 247.68,143.00 225.17,130.00 225.17,104.00" fill="#256A8C" stroke="#123D53" stroke-width="1.2"/><polygon points="112.58,143.00 112.58,169.00 90.07,182.00 67.55,169.00 67.55,174.00 90.07,187.00 112.58,174.00 112.58,148.00" fill="#9B7A16"/><polygon points="90.07,130.00 112.58,143.00 112.58,169.00 90.07,182.00 67.55,169.00 67.55,143.00" fill="#D2A93A" stroke="#9B7A16" stroke-width="1.2"/><ellipse cx="90.07" cy="162.00" rx="11" ry="5.5" fill="#232659"/><ellipse cx="90.07" cy="159.00" rx="11" ry="5.5" fill="#3B3F8F" stroke="#232659" stroke-width="1.2"/><polygon points="157.62,143.00 157.62,169.00 135.10,182.00 112.58,169.00 112.58,182.00 135.10,195.00 157.62,182.00 157.62,156.00" fill="#1E4229"/><polygon points="135.10,130.00 157.62,143.00 157.62,169.00 135.10,182.00 112.58,169.00 112.58,143.00" fill="#37704A" stroke="#1E4229" stroke-width="1.2"/><polygon points="135.10,182.00 135.10,208.00 112.58,221.00 90.07,208.00 90.07,213.00 112.58,226.00 135.10,213.00 135.10,187.00" fill="#123D53"/><polygon points="112.58,169.00 135.10,182.00 135.10,208.00 112.58,221.00 90.07,208.00 90.07,182.00" fill="#256A8C" stroke="#123D53" stroke-width="1.2"/></g><text x="606.17" y="237.00" text-anchor="middle" class="fig-strong" font-size="11">4 players</text></svg>